<svg width="49" height="48" viewBox="0 0 49 48" fill="none" xmlns="http://www.w3.org/2000/svg">
<path d="M22.5 30H26.5V34H22.5V30ZM22.5 14H26.5V26H22.5V14ZM24.5 4C13.44 4 4.5 13 4.5 24C4.5 29.3043 6.60714 34.3914 10.3579 38.1421C12.215 39.9993 14.4198 41.4725 16.8463 42.4776C19.2728 43.4827 21.8736 44 24.5 44C29.8043 44 34.8914 41.8929 38.6421 38.1421C42.3929 34.3914 44.5 29.3043 44.5 24C44.5 21.3736 43.9827 18.7728 42.9776 16.3463C41.9725 13.9198 40.4993 11.715 38.6421 9.85786C36.785 8.00069 34.5802 6.5275 32.1537 5.52241C29.7272 4.51732 27.1264 4 24.5 4ZM24.5 40C20.2565 40 16.1869 38.3143 13.1863 35.3137C10.1857 32.3131 8.5 28.2435 8.5 24C8.5 19.7565 10.1857 15.6869 13.1863 12.6863C16.1869 9.68571 20.2565 8 24.5 8C28.7435 8 32.8131 9.68571 35.8137 12.6863C38.8143 15.6869 40.5 19.7565 40.5 24C40.5 28.2435 38.8143 32.3131 35.8137 35.3137C32.8131 38.3143 28.7435 40 24.5 40Z" fill="#FF3B3B"/>
</svg>
