<svg width="49" height="48" viewBox="0 0 49 48" fill="none" xmlns="http://www.w3.org/2000/svg">
<path d="M40.5 24.0001C40.5 28.2436 38.8143 32.3132 35.8137 35.3138C32.8131 38.3144 28.7435 40.0001 24.5 40.0001C20.2565 40.0001 16.1869 38.3144 13.1863 35.3138C10.1857 32.3132 8.5 28.2436 8.5 24.0001C8.5 19.7566 10.1857 15.687 13.1863 12.6864C16.1869 9.6858 20.2565 8.00009 24.5 8.00009C26.02 8.00009 27.5 8.22009 28.9 8.62009L32.04 5.48009C29.6486 4.49522 27.0863 3.99227 24.5 4.00009C21.8736 4.00009 19.2728 4.51741 16.8463 5.5225C14.4198 6.52759 12.215 8.00078 10.3579 9.85795C6.60714 13.6087 4.5 18.6958 4.5 24.0001C4.5 29.3044 6.60714 34.3915 10.3579 38.1422C12.215 39.9994 14.4198 41.4726 16.8463 42.4777C19.2728 43.4828 21.8736 44.0001 24.5 44.0001C29.8043 44.0001 34.8914 41.893 38.6421 38.1422C42.3929 34.3915 44.5 29.3044 44.5 24.0001M16.32 20.1601L13.5 23.0001L22.5 32.0001L42.5 12.0001L39.68 9.16009L22.5 26.3401L16.32 20.1601Z" fill="#11A75C"/>
</svg>
