<svg width="16" height="16" viewBox="0 0 16 16" fill="none" xmlns="http://www.w3.org/2000/svg">
<path d="M12.6673 14.0001H5.33398V4.66675H12.6673M12.6673 3.33341H5.33398C4.98036 3.33341 4.64122 3.47389 4.39118 3.72394C4.14113 3.97399 4.00065 4.31313 4.00065 4.66675V14.0001C4.00065 14.3537 4.14113 14.6928 4.39118 14.9429C4.64122 15.1929 4.98036 15.3334 5.33398 15.3334H12.6673C13.0209 15.3334 13.3601 15.1929 13.6101 14.9429C13.8602 14.6928 14.0007 14.3537 14.0007 14.0001V4.66675C14.0007 4.31313 13.8602 3.97399 13.6101 3.72394C13.3601 3.47389 13.0209 3.33341 12.6673 3.33341ZM10.6673 0.666748H2.66732C2.3137 0.666748 1.97456 0.807224 1.72451 1.05727C1.47446 1.30732 1.33398 1.64646 1.33398 2.00008V11.3334H2.66732V2.00008H10.6673V0.666748Z" fill="#444D61"/>
</svg>
