<svg width="25" height="24" viewBox="0 0 25 24" fill="none" xmlns="http://www.w3.org/2000/svg">
<mask id="path-1-inside-1_229_16323" fill="white">
<path d="M24.3832 13.6701C23.9946 16.4353 22.6537 18.9785 20.5916 20.8615C18.5295 22.7444 15.8753 23.8493 13.0862 23.9857C10.2971 24.1221 7.54772 23.2815 5.31172 21.6088C3.07572 19.936 1.49309 17.5359 0.836468 14.8217C0.179846 12.1076 0.490343 9.24938 1.71447 6.73955C2.9386 4.22971 4.99971 2.22537 7.54275 1.0718C10.0858 -0.0817762 12.9515 -0.312347 15.6463 0.419802C18.341 1.15195 20.6961 2.80098 22.3057 5.08281L20.7368 6.18956C19.3847 4.27282 17.4065 2.88764 15.1429 2.27263C12.8793 1.65763 10.4721 1.85131 8.33591 2.82031C6.19976 3.78931 4.46842 5.47296 3.44016 7.58122C2.41189 9.68948 2.15107 12.0903 2.70263 14.3702C3.2542 16.6501 4.5836 18.6663 6.46184 20.0714C8.34008 21.4765 10.6496 22.1826 12.9924 22.068C15.3353 21.9534 17.5648 21.0253 19.297 19.4436C21.0291 17.8619 22.1555 15.7257 22.4819 13.4029L24.3832 13.6701Z"/>
</mask>
<path d="M24.3832 13.6701C23.9946 16.4353 22.6537 18.9785 20.5916 20.8615C18.5295 22.7444 15.8753 23.8493 13.0862 23.9857C10.2971 24.1221 7.54772 23.2815 5.31172 21.6088C3.07572 19.936 1.49309 17.5359 0.836468 14.8217C0.179846 12.1076 0.490343 9.24938 1.71447 6.73955C2.9386 4.22971 4.99971 2.22537 7.54275 1.0718C10.0858 -0.0817762 12.9515 -0.312347 15.6463 0.419802C18.341 1.15195 20.6961 2.80098 22.3057 5.08281L20.7368 6.18956C19.3847 4.27282 17.4065 2.88764 15.1429 2.27263C12.8793 1.65763 10.4721 1.85131 8.33591 2.82031C6.19976 3.78931 4.46842 5.47296 3.44016 7.58122C2.41189 9.68948 2.15107 12.0903 2.70263 14.3702C3.2542 16.6501 4.5836 18.6663 6.46184 20.0714C8.34008 21.4765 10.6496 22.1826 12.9924 22.068C15.3353 21.9534 17.5648 21.0253 19.297 19.4436C21.0291 17.8619 22.1555 15.7257 22.4819 13.4029L24.3832 13.6701Z" stroke="#004867" stroke-width="8" mask="url(#path-1-inside-1_229_16323)"/>
</svg>
