<svg width="16" height="16" viewBox="0 0 16 16" fill="none" xmlns="http://www.w3.org/2000/svg">
<path d="M7.33398 5.99992H8.66732V4.66659H7.33398M8.00065 13.3333C5.06065 13.3333 2.66732 10.9399 2.66732 7.99992C2.66732 5.05992 5.06065 2.66659 8.00065 2.66659C10.9407 2.66659 13.334 5.05992 13.334 7.99992C13.334 10.9399 10.9407 13.3333 8.00065 13.3333ZM8.00065 1.33325C7.12517 1.33325 6.25827 1.50569 5.44943 1.84072C4.64059 2.17575 3.90566 2.66682 3.28661 3.28587C2.03636 4.53612 1.33398 6.23181 1.33398 7.99992C1.33398 9.76803 2.03636 11.4637 3.28661 12.714C3.90566 13.333 4.64059 13.8241 5.44943 14.1591C6.25827 14.4941 7.12517 14.6666 8.00065 14.6666C9.76876 14.6666 11.4645 13.9642 12.7147 12.714C13.9649 11.4637 14.6673 9.76803 14.6673 7.99992C14.6673 7.12444 14.4949 6.25753 14.1598 5.4487C13.8248 4.63986 13.3338 3.90493 12.7147 3.28587C12.0956 2.66682 11.3607 2.17575 10.5519 1.84072C9.74304 1.50569 8.87613 1.33325 8.00065 1.33325ZM7.33398 11.3333H8.66732V7.33325H7.33398V11.3333Z" fill="#798397"/>
</svg>
